HIERARCHY
ROOT Hips
{
  OFFSET 53.007 93.9298 13.5343
  CHANNELS 6 Xposition Yposition Zposition Zrotation Xrotation Yrotation
  JOINT spine
  {
    OFFSET 0 7.80059 0.448573
    CHANNELS 3 Zrotation Xrotation Yrotation
    JOINT spine1
    {
      OFFSET 0 10.1364 0
      CHANNELS 3 Zrotation Xrotation Yrotation
      JOINT spine2
      {
        OFFSET 0 9.71251 0
        CHANNELS 3 Zrotation Xrotation Yrotation
        JOINT Neck
        {
          OFFSET 0 24.9361 1.18887
          CHANNELS 3 Zrotation Xrotation Yrotation
          JOINT Head
          {
            OFFSET 0 7.53384 0
            CHANNELS 3 Zrotation Xrotation Yrotation
            End Site
            {
              OFFSET 0 18.2361 -6.01402
            }
          }
        }
        JOINT RightShoulder
        {
          OFFSET -4.08965 10.4888 -0.569457
          CHANNELS 3 Zrotation Xrotation Yrotation
          JOINT RightArm
          {
            OFFSET 0 13.757 0
            CHANNELS 3 Zrotation Xrotation Yrotation
            JOINT RightArmRoll
            {
              OFFSET 0 6.94478 0
              CHANNELS 3 Zrotation Xrotation Yrotation
              JOINT RightForeArm
              {
                OFFSET 0 20.2277 0
                CHANNELS 3 Zrotation Xrotation Yrotation
                JOINT RightForeArmRoll
                {
                  OFFSET 0 7.79312 0
                  CHANNELS 3 Zrotation Xrotation Yrotation
                  JOINT RightHand
                  {
                    OFFSET 0 15.6391 0
                    CHANNELS 3 Zrotation Xrotation Yrotation
                    End Site
                    {
                      OFFSET 0 0 0
                    }
                  }
                }
              }
            }
          }
        }
        JOINT LeftShoulder
        {
          OFFSET 4.08965 10.4888 -0.569457
          CHANNELS 3 Zrotation Xrotation Yrotation
          JOINT LeftArm
          {
            OFFSET 0 13.757 0
            CHANNELS 3 Zrotation Xrotation Yrotation
            JOINT LeftArmRoll
            {
              OFFSET 0 6.94478 0
              CHANNELS 3 Zrotation Xrotation Yrotation
              JOINT LeftForeArm
              {
                OFFSET 0 20.2277 0
                CHANNELS 3 Zrotation Xrotation Yrotation
                JOINT LeftForeArmRoll
                {
                  OFFSET 0 7.79312 0
                  CHANNELS 3 Zrotation Xrotation Yrotation
                  JOINT LeftHand
                  {
                    OFFSET 0 15.6391 0
                    CHANNELS 3 Zrotation Xrotation Yrotation
                    End Site
                    {
                      OFFSET 0 0 0
                    }
                  }
                }
              }
            }
          }
        }
      }
    }
  }
  JOINT RightUpLeg
  {
    OFFSET -6.91416 -1.26788 -1.06358
    CHANNELS 3 Zrotation Xrotation Yrotation
    JOINT RightUpLegRoll
    {
      OFFSET 0 18.3378 0
      CHANNELS 3 Zrotation Xrotation Yrotation
      JOINT RightLeg
      {
        OFFSET 0 -22.7085 0
        CHANNELS 3 Zrotation Xrotation Yrotation
        JOINT RightLegRoll
        {
          OFFSET 0 22.7828 0
          CHANNELS 3 Zrotation Xrotation Yrotation
          JOINT RightFoot
          {
            OFFSET 0 18.9629 0
            CHANNELS 3 Zrotation Xrotation Yrotation
            JOINT RightToeBase
            {
              OFFSET 0 15.852 0
              CHANNELS 3 Zrotation Xrotation Yrotation
              End Site
              {
                OFFSET 0.00671906 7.67701 -0.884892
              }
            }
          }
        }
      }
    }
  }
  JOINT LeftUpLeg
  {
    OFFSET 6.91416 -1.26788 -1.06358
    CHANNELS 3 Zrotation Xrotation Yrotation
    JOINT LeftUpLegRoll
    {
      OFFSET 0 18.3379 0
      CHANNELS 3 Zrotation Xrotation Yrotation
      JOINT LeftLeg
      {
        OFFSET 0 22.7084 0
        CHANNELS 3 Zrotation Xrotation Yrotation
        JOINT LeftLegRoll
        {
          OFFSET 0 22.9934 0
          CHANNELS 3 Zrotation Xrotation Yrotation
          JOINT LeftFoot
          {
            OFFSET 0 18.7522 0
            CHANNELS 3 Zrotation Xrotation Yrotation
            JOINT LeftToeBase
            {
              OFFSET 0 15.852 0
              CHANNELS 3 Zrotation Xrotation Yrotation
              End Site
              {
                OFFSET -0.030112 7.67701 -0.884892
              }
            }
          }
        }
      }
    }
  }
}
MOTION
Frames: 6
Frame Time: 0.00208333
54.2912 93.928 12.1244 -0.206551 -5.4738 -0.850921 -0.105895 -0.852864 0.330316 -0.216803 2.30204 0.680262 -0.225222 3.94706 0.684541 -5.61385 21.386 0.258504 6.78021 -17.6108 0.100391 78.3345 -4.09551 -3.88418 93.159 10.9517 11.6926 -5.56597e-015 7.95139e-016 -0 12.871 15.4664 -2.67955 -1.94856e-006 -3.60454e-006 -3 8.02887 -4.95142 0.697697 -67.7684 0.902894 0.620272 -106.008 2.65423 -13.0063 -1.03368e-014 -2.38542e-015 -4.77083e-015 -4.87883 16.8693 1.90335 2.59173e-006 1.72266e-006 3 -8.02961 -4.95144 -0.697668 173.931 0.774559 0.774418 180 7.01587e-015 179.116 -178.983 12.5673 178.819 2.08891e-006 -4.47415e-006 0.00748852 -15.3234 69.5827 20.7185 8.13662 25.2345 -3.4852 -178.482 -2.03287 5.94391 4.54188e-006 -4.6773e-006 -1.43225 -4.41192 -12.3329 -0.212802 -1.37764e-006 -5.90568e-006 -0.256594 24.6044 72.1682 -24.0677 -8.13649 25.2327 3.48774 
54.2951 93.9294 12.1292 -0.203553 -5.48032 -0.84752 -0.10592 -0.851005 0.330802 -0.215594 2.30496 0.680606 -0.224013 3.94997 0.684867 -5.6219 21.4028 0.258352 6.77685 -17.6039 0.0955282 78.3261 -4.09753 -3.88447 93.1719 10.8899 11.7866 3.97569e-016 -5.56597e-015 -0 12.816 15.5164 -2.68348 -1.94856e-006 -3.60454e-006 -3 8.02887 -4.95142 0.697697 -67.769 0.893602 0.625091 -106.009 2.67523 -13.0884 -2.83268e-015 -1.39149e-015 -3.18055e-015 -4.81143 16.7793 1.88448 2.59173e-006 1.72266e-006 3 -8.02961 -4.95144 -0.697668 173.928 0.765478 0.774796 180 7.01587e-015 179.116 -178.98 12.5655 178.818 2.08891e-006 -4.47415e-006 0.00748852 -15.3226 69.5833 20.7211 8.13662 25.2345 -3.4852 -178.485 -2.04504 5.94422 4.54188e-006 -4.6773e-006 -1.43225 -4.41364 -12.3235 -0.213035 -1.37764e-006 -5.90568e-006 -0.256594 24.6011 72.1649 -24.062 -8.13649 25.2327 3.48774 
54.2971 93.9326 12.1243 -0.20051 -5.48704 -0.844132 -0.10599 -0.84906 0.331323 -0.214404 2.308 0.680978 -0.222824 3.95301 0.685227 -5.62983 21.419 0.257938 6.77322 -17.5962 0.0903636 78.3178 -4.09952 -3.88476 93.1853 10.8273 11.8769 -7.15625e-015 3.18055e-015 -3.18055e-015 12.763 15.5687 -2.68792 -1.94856e-006 -3.60454e-006 -3 8.02887 -4.95142 0.697697 -67.7691 0.883533 0.630251 -106.01 2.69634 -13.1679 -1.30204e-014 -3.57812e-015 -3.18055e-015 -4.74601 16.6899 1.86593 2.59173e-006 1.72266e-006 3 -8.02961 -4.95144 -0.697668 173.925 0.756119 0.775155 180 7.01587e-015 179.116 -178.976 12.5636 178.817 2.08891e-006 -4.47415e-006 0.00748852 -15.3218 69.5839 20.7237 8.13662 25.2345 -3.4852 -178.487 -2.05759 5.94456 4.54188e-006 -4.6773e-006 -1.43225 -4.41532 -12.3139 -0.213265 -1.37764e-006 -5.90568e-006 -0.256594 24.5978 72.1616 -24.0563 -8.13649 25.2327 3.48774 
54.2999 93.932 12.1246 -0.197435 -5.49391 -0.840752 -0.10609 -0.847054 0.331868 -0.213228 2.31114 0.681371 -0.221649 3.95615 0.685611 -5.63768 21.4349 0.257342 6.7694 -17.5881 0.0849882 78.3095 -4.10149 -3.88504 93.1992 10.7641 11.9647 -9.14409e-015 3.97569e-015 3.18055e-015 12.7115 15.6227 -2.69271 -1.94856e-006 -3.60454e-006 -3 8.02887 -4.95142 0.697697 -67.7689 0.872921 0.635649 -106.011 2.71751 -13.2456 8.19987e-015 3.97569e-016 -1.59028e-015 -4.682 16.601 1.84761 2.59173e-006 1.72266e-006 3 -8.02961 -4.95144 -0.697668 173.922 0.746565 0.7755 180 7.01587e-015 179.116 -178.973 12.5616 178.817 2.08891e-006 -4.47415e-006 0.00748852 -15.3209 69.5845 20.7264 8.13662 25.2345 -3.4852 -178.49 -2.07041 5.94495 4.54188e-006 -4.6773e-006 -1.43225 -4.41698 -12.3041 -0.213492 -1.37764e-006 -5.90568e-006 -0.256594 24.5944 72.1583 -24.0505 -8.13649 25.2327 3.48774 
54.304 93.9245 12.1373 -0.194341 -5.50086 -0.837377 -0.106208 -0.845013 0.332428 -0.21206 2.31433 0.681774 -0.220482 3.95934 0.686008 -5.64548 21.4506 0.25664 6.76547 -17.5798 0.0794926 78.3012 -4.10344 -3.88531 93.2134 10.7006 12.051 2.0276e-014 -4.77083e-015 6.36111e-015 12.6608 15.6775 -2.6977 -1.94856e-006 -3.60454e-006 -3 8.02887 -4.95142 0.697697 -67.7685 0.861998 0.641183 -106.013 2.73871 -13.3222 5.91384e-015 7.95139e-016 -3.18055e-015 -4.61882 16.5123 1.82943 2.59173e-006 1.72266e-006 3 -8.02961 -4.95144 -0.697668 173.919 0.736901 0.775838 180 7.01587e-015 179.116 -178.969 12.5596 178.816 2.08891e-006 -4.47415e-006 0.00748852 -15.32 69.585 20.729 8.13662 25.2345 -3.4852 -178.493 -2.08337 5.94535 4.54188e-006 -4.6773e-006 -1.43225 -4.41863 -12.2943 -0.213717 -1.37764e-006 -5.90568e-006 -0.256594 24.5909 72.1549 -24.0446 -8.13649 25.2327 3.48774 
54.3057 93.9264 12.1339 -0.191242 -5.50783 -0.834003 -0.106331 -0.842963 0.332991 -0.210893 2.31753 0.682181 -0.219317 3.96254 0.686409 -5.65326 21.4662 0.255913 6.76152 -17.5713 0.0739673 78.2928 -4.10539 -3.88559 93.2278 10.6369 12.137 7.95139e-016 -3.97569e-015 3.18055e-015 12.6103 15.7327 -2.70275 -1.94856e-006 -3.60454e-006 -3 8.02887 -4.95142 0.697697 -67.7681 0.850997 0.646752 -106.015 2.75991 -13.3986 3.03147e-015 0 -3.18055e-015 -4.55589 16.4237 1.8113 2.59173e-006 1.72266e-006 3 -8.02961 -4.95144 -0.697668 173.917 0.727208 0.776174 180 7.01587e-015 179.116 -178.966 12.5576 178.815 2.08891e-006 -4.47415e-006 0.00748852 -15.3191 69.5856 20.7317 8.13662 25.2345 -3.4852 -178.496 -2.09638 5.94575 4.54188e-006 -4.6773e-006 -1.43225 -4.42027 -12.2844 -0.213942 -1.37764e-006 -5.90568e-006 -0.256594 24.5874 72.1516 -24.0387 -8.13649 25.2327 3.48774 
